<?xml version="1.0" encoding="utf-8"?>
<!-- Generator: Adobe Illustrator 17.0.0, SVG Export Plug-In . SVG Version: 6.00 Build 0)  -->
<!DOCTYPE svg PUBLIC "-//W3C//DTD SVG 1.1//EN" "http://www.w3.org/Graphics/SVG/1.1/DTD/svg11.dtd">
<svg version="1.1" id="Layer_1" xmlns="http://www.w3.org/2000/svg" xmlns:xlink="http://www.w3.org/1999/xlink" x="0px" y="0px"
	 width="28px" height="21.913px" viewBox="0 0 28 21.913" enable-background="new 0 0 28 21.913" xml:space="preserve">
<g id="Page-1">
	<g id="Logo" transform="translate(-40.000000, -312.000000)">
		<g id="LOGO1" transform="translate(40.000000, 312.000000)">
			<g id="Mark">
				<path id="Fill-1" fill="#9EA3A8" d="M14.003,13.324c-2.372,0-4.31-1.848-4.461-4.178c0.494,0.108,0.993,0.199,1.499,0.271
					c0.265,1.397,1.487,2.45,2.962,2.45c0.307,0,0.602-0.048,0.885-0.132L14.78,9.748l1.517,1.06
					c0.337-0.391,0.572-0.867,0.668-1.397c0.506-0.072,1.005-0.163,1.499-0.271C18.313,11.476,16.375,13.324,14.003,13.324
					L14.003,13.324L14.003,13.324z M19.927,7.237L19.927,7.237c-0.066,0.024-0.138,0.042-0.205,0.066
					c-0.464,0.144-0.927,0.271-1.403,0.385c-0.47,0.108-0.951,0.199-1.433,0.277c-0.939,0.144-1.902,0.217-2.884,0.217
					s-1.939-0.072-2.884-0.217c-0.482-0.072-0.963-0.163-1.433-0.277C9.211,7.581,8.741,7.454,8.284,7.304
					C8.218,7.28,8.145,7.261,8.079,7.237l0,0c0,0,0,1.583,0,1.613c0,3.269,2.655,5.924,5.924,5.924s5.924-2.649,5.924-5.918
					L19.927,7.237L19.927,7.237z"/>
				<path id="Fill-3" fill="#9EA3A8" d="M23.96,16.165l-2.914-2.035l0.229,4.16c-2.119,1.288-4.611,2.035-7.272,2.035
					S8.85,19.579,6.731,18.29l0.229-4.16l-2.92,2.035c-1.005-1.017-1.854-2.185-2.51-3.468c0.163-0.644,0.367-1.27,0.626-1.866
					C2.39,10.272,2.667,9.73,2.98,9.212C2.733,8.658,2.535,8.086,2.372,7.49C2.101,6.491,1.963,5.443,1.963,4.36
					c0-0.578,0.042-1.144,0.12-1.698l4.172,2.914c0.415-0.313,0.849-0.602,1.3-0.867c1.896-1.102,4.1-1.734,6.454-1.734
					s4.557,0.632,6.454,1.734c0.452,0.265,0.885,0.554,1.3,0.867l4.172-2.914c0.078,0.554,0.12,1.126,0.12,1.698
					c0,1.084-0.144,2.131-0.409,3.131c-0.157,0.596-0.361,1.168-0.608,1.722c0.313,0.518,0.584,1.06,0.825,1.619
					c0.253,0.602,0.464,1.228,0.626,1.866C25.815,13.98,24.96,15.148,23.96,16.165 M27.332,10.615
					c-0.205-0.518-0.433-1.023-0.692-1.511c0.554-1.475,0.861-3.076,0.861-4.75c0-0.885-0.084-1.752-0.247-2.589
					c0-0.012-0.006-0.024-0.006-0.036c-0.102-0.512-0.229-1.011-0.385-1.505l-5.099,3.564c-2.233-1.445-4.894-2.282-7.754-2.282
					S8.488,2.343,6.255,3.788L1.15,0.236C0.993,0.724,0.861,1.229,0.765,1.741c0,0.012-0.006,0.024-0.006,0.036
					C0.596,2.614,0.512,3.481,0.512,4.366c0,1.674,0.307,3.269,0.861,4.75c-0.259,0.488-0.494,0.993-0.692,1.511
					C0.391,11.343,0.163,12.096,0,12.872c0.343,0.728,0.734,1.421,1.18,2.077c0.494,0.734,1.048,1.421,1.656,2.053
					c0.343,0.355,0.698,0.698,1.078,1.023l1.433-0.993l-0.114,2.017c0.452,0.313,0.921,0.602,1.409,0.867
					c2.191,1.186,4.696,1.86,7.363,1.86s5.171-0.674,7.363-1.86c0.488-0.265,0.957-0.554,1.409-0.867l-0.114-2.017l1.427,0.999
					c0.373-0.325,0.734-0.662,1.078-1.023c0.608-0.638,1.162-1.324,1.656-2.053c0.445-0.656,0.837-1.355,1.18-2.077
					C27.837,12.096,27.615,11.343,27.332,10.615"/>
			</g>
		</g>
	</g>
</g>
<g id="Layer_3" display="none">
	<path id="refresh-6" display="inline" fill="#FFFFFF" stroke="#FFFFFF" stroke-width="5" stroke-miterlimit="10" d="M460.5,385.7
		c-5,45.8-43.8,81.5-90.9,81.5c-27.4,0-52-12.1-68.7-31.3l12.7-16.6c13,16.7,33.3,27.5,56.1,27.5c35.8,0,65.5-26.7,70.4-61.2h-29.7
		l40.7-53.4l40.7,53.4h-31.3L460.5,385.7L460.5,385.7z M294.9,344.6c5-34.4,34.6-61,70.3-61c22.7,0,43,10.8,56,27.4l12.6-16.6
		c-16.8-19.1-41.3-31.2-68.6-31.2c-47.1,0-85.8,35.6-90.9,81.3h-31.1l40.7,53.4l40.7-53.4h-29.7L294.9,344.6L294.9,344.6z"/>
</g>
</svg>
